<svg width="34" height="30" viewBox="0 0 34 30" fill="none" xmlns="http://www.w3.org/2000/svg">
<path d="M33.0942 14.9128L33.0912 14.9402V14.9678C33.0912 15.7399 32.446 16.3483 31.724 16.3483H29.8569H29.3547L29.3569 16.8504L29.3977 26.2332C29.3977 26.2334 29.3977 26.2337 29.3977 26.234C29.3977 26.3678 29.3878 26.5063 29.3716 26.6527L29.3686 26.6801V26.7077V27.6567C29.3686 28.6771 28.5461 29.5 27.5346 29.5H26.601C26.5331 29.5 26.4917 29.4997 26.4539 29.4962L26.4134 29.4925L26.3727 29.4954C26.3121 29.4998 26.2486 29.5 26.1644 29.5C26.1641 29.5 26.1637 29.5 26.1634 29.5L24.2687 29.4941H24.2671H22.8667C21.8553 29.4941 21.0328 28.6713 21.0328 27.6509V26.2449V22.4956C21.0328 21.1844 19.9765 20.121 18.6657 20.121H14.9314C13.6206 20.121 12.5642 21.1844 12.5642 22.4956V26.2449V27.6509C12.5642 28.6713 11.7417 29.4941 10.7303 29.4941H9.32991H7.4686C7.40059 29.4941 7.32977 29.4896 7.23942 29.4835L7.20186 29.481L7.16434 29.4842C7.09078 29.4903 7.04161 29.4941 6.99598 29.4941H6.0624C5.05093 29.4941 4.22846 28.6713 4.22846 27.6509V21.0896C4.22846 21.0309 4.22902 21.0009 4.23127 20.9806L4.2343 20.9532V20.9256V16.8424V16.3424H3.7343H1.86715C1.09593 16.3424 0.5 15.749 0.5 14.9619C0.5 14.5666 0.623209 14.2298 0.926401 13.9203L15.8675 0.844923L15.8804 0.833641L15.8924 0.821504C16.1619 0.550979 16.4646 0.5 16.8218 0.5C17.1458 0.5 17.4854 0.594422 17.7218 0.789772L32.6185 13.9367L32.6194 13.9374C33.0037 14.2751 33.1294 14.5945 33.0942 14.9128Z" stroke="white"/>
</svg>
