<svg width="35" height="30" viewBox="0 0 35 30" fill="none" xmlns="http://www.w3.org/2000/svg">
<path d="M8.65235 2.80536L8.65235 2.80529C8.60484 1.55092 9.63408 0.5 10.9125 0.5H24.0375C25.3159 0.5 26.3451 1.55092 26.2976 2.80529L26.2976 2.80571C26.2859 3.12233 26.2743 3.42228 26.2571 3.7212L26.2265 4.25H26.7562H32.9437C33.4469 4.25 33.85 4.6531 33.85 5.15625C33.85 10.4471 31.9416 14.0913 29.4076 16.5576C26.8952 19.002 23.8203 20.2427 21.5266 20.8751C19.975 21.298 18.85 22.6142 18.85 24.0293C18.85 25.53 20.0699 26.75 21.5707 26.75H23.1C23.8609 26.75 24.475 27.364 24.475 28.125C24.475 28.886 23.8609 29.5 23.1 29.5H11.85C11.089 29.5 10.475 28.886 10.475 28.125C10.475 27.364 11.089 26.75 11.85 26.75H13.3793C14.88 26.75 16.1 25.53 16.1 24.0293C16.1 22.6118 14.9666 21.3038 13.4252 20.8757L13.4246 20.8755C11.1364 20.2431 8.06103 19.0023 5.54825 16.5576L5.54792 16.5573C3.00831 14.0911 1.09998 10.4471 1.09998 5.15625C1.09998 4.6531 1.50307 4.25 2.00623 4.25H8.19373H8.7234L8.6929 3.7212C8.67565 3.42233 8.66411 3.11681 8.65235 2.80536ZM8.90799 6.51226L8.86257 6.0625H8.41052H3.93478H3.47107H3.46521V6.5625V6.56294L2.97249 6.6001C3.27497 10.6111 4.85473 13.3548 6.814 15.259C8.17905 16.5874 9.75059 17.5257 11.2495 18.1878L12.6254 18.7957L11.8872 17.4851C10.5995 15.199 9.43625 11.7426 8.90799 6.51226ZM23.0686 17.4851L22.3304 18.7957L23.7063 18.1878C25.1514 17.5494 26.6641 16.6543 27.9941 15.4004H28.0026L28.1482 15.2584C30.1011 13.3545 31.6806 10.6113 31.9891 6.60085L32.0305 6.0625H31.4906H26.5453H26.0932L26.0478 6.51226C25.5196 11.7426 24.3563 15.199 23.0686 17.4851Z" stroke="white"/>
</svg>
