<svg width="35" height="30" viewBox="0 0 35 30" fill="none" xmlns="http://www.w3.org/2000/svg">
<path d="M16.6694 18.2446L16.6678 18.2425C15.7169 17.0569 14.1643 15.0322 12.8519 12.9067C12.1956 11.8438 11.6054 10.7652 11.1807 9.76063C10.7524 8.74775 10.5097 7.84987 10.5097 7.13665C10.5097 3.47066 13.4845 0.5 17.1595 0.5C20.8345 0.5 23.8093 3.47066 23.8093 7.13665C23.8093 7.84987 23.5666 8.74775 23.1384 9.76063C22.7136 10.7652 22.1234 11.8438 21.4671 12.9067C20.1548 15.0319 18.6024 17.0564 17.6516 18.2421C17.3916 18.5656 16.9208 18.5615 16.6694 18.2446ZM33.2313 26.0077L25.286 29.1767V12.0372C25.4786 11.6525 25.6558 11.2684 25.8177 10.8895L25.8193 10.8857C25.8231 10.8766 25.8269 10.8675 25.8307 10.8584L32.5437 8.17809C32.5438 8.17805 32.5438 8.17802 32.5439 8.17798C33.1581 7.93375 33.819 8.38344 33.819 9.03976V25.1448C33.819 25.5202 33.5887 25.8621 33.2325 26.0072C33.2321 26.0074 33.2317 26.0076 33.2313 26.0077ZM0.5 12.4654C0.5 12.09 0.730354 11.748 1.08652 11.6029C1.08692 11.6027 1.08731 11.6026 1.08771 11.6024L7.83051 8.91247C7.99586 9.59538 8.23585 10.265 8.50091 10.8887L8.50128 10.8895C8.66317 11.2684 8.84041 11.6525 9.03306 12.0372V26.5309L1.77534 29.4321C1.77514 29.4321 1.77493 29.4322 1.77473 29.4323C1.16067 29.6762 0.5 29.2266 0.5 28.5704V12.4654ZM19.9209 20.0576L19.9212 20.0572C20.5489 19.2729 21.447 18.1164 22.3793 16.7898V29.3291L11.9397 26.3495V16.7898C12.872 18.1164 13.7701 19.2729 14.3978 20.0572L14.3982 20.0576C15.8197 21.8296 18.4993 21.8296 19.9209 20.0576ZM17.1595 9.53976C17.9239 9.53976 18.6572 9.23667 19.198 8.69688C19.7388 8.15705 20.0428 7.4247 20.0428 6.66087C20.0428 5.89705 19.7388 5.1647 19.198 4.62487C18.6572 4.08508 17.9239 3.78199 17.1595 3.78199C16.3951 3.78199 15.6618 4.08508 15.1211 4.62487C14.5802 5.1647 14.2762 5.89705 14.2762 6.66087C14.2762 7.4247 14.5802 8.15705 15.1211 8.69688C15.6618 9.23667 16.3951 9.53976 17.1595 9.53976Z" stroke="white"/>
</svg>
