<svg width="27" height="30" viewBox="0 0 27 30" fill="none" xmlns="http://www.w3.org/2000/svg">
<g clip-path="url(#clip0_278_836)">
<path d="M18.0747 12.4497C16.762 13.7625 14.9815 14.5 13.125 14.5C11.2685 14.5 9.48801 13.7625 8.17525 12.4497C6.8625 11.137 6.125 9.35652 6.125 7.5C6.125 5.64348 6.8625 3.86301 8.17525 2.55025C9.48801 1.2375 11.2685 0.5 13.125 0.5C14.9815 0.5 16.762 1.2375 18.0747 2.55025C19.3875 3.86301 20.125 5.64348 20.125 7.5C20.125 9.35652 19.3875 11.137 18.0747 12.4497ZM0.5 28.2598C0.5 22.7644 4.95192 18.3125 10.4473 18.3125H15.8027C21.2981 18.3125 25.75 22.7644 25.75 28.2598C25.75 28.9446 25.1946 29.5 24.5098 29.5H1.74023C1.05544 29.5 0.5 28.9446 0.5 28.2598Z" stroke="white"/>
</g>
<defs>
<clipPath id="clip0_278_836">
<rect width="26.25" height="30" fill="white"/>
</clipPath>
</defs>
</svg>
