<svg width="113" height="150" viewBox="0 0 113 150" fill="none" xmlns="http://www.w3.org/2000/svg">
<path d="M100.371 44.1211C104.033 40.459 104.033 34.5117 100.371 30.8496C96.709 27.1875 90.7617 27.1875 87.0996 30.8496L56.25 61.7285L25.3711 30.8789C21.709 27.2168 15.7617 27.2168 12.0996 30.8789C8.4375 34.541 8.4375 40.4883 12.0996 44.1504L42.9785 75L12.1289 105.879C8.4668 109.541 8.4668 115.488 12.1289 119.15C15.791 122.813 21.7383 122.813 25.4004 119.15L56.25 88.2715L87.1289 119.121C90.791 122.783 96.7383 122.783 100.4 119.121C104.063 115.459 104.063 109.512 100.4 105.85L69.5215 75L100.371 44.1211Z" fill="#A80227"/>
</svg>
